<svg
   xmlns:svg="http://www.w3.org/2000/svg"
   xmlns="http://www.w3.org/2000/svg"
   xmlns:xlink="http://www.w3.org/1999/xlink"
   version="1.1"
   height="500" width="1000"
>

<defs>
	<g id="greyText">
		<!-- GREY style="fill:#222;fill-opacity:1;stroke:#666f" -->
		<!-- Eng -->
		<path  transform="translate(68,110), scale(0.9)"
				d="m 0,0 q -4.032,1.94134 -8.88534,2.98667 -4.77866,1.12 -11.05066,1.12 -6.421335,0 -11.722668,-2.016 -5.301334,-2.09067 -9.109333,-5.74933 -3.808,-3.73334 -5.973334,-8.81067 -2.090666,-5.152 -2.090666,-11.34933 0,-6.34667 2.165333,-11.424 2.24,-5.152 6.048,-8.736 3.882666,-3.584 9.109333,-5.52534 5.226666,-1.94133 11.349335,-1.94133 6.34666,0 11.57333,1.86667 5.30133,1.792 8.512,4.77866 l -6.496,7.01867 q -2.016,-2.24 -5.67467,-3.808 -3.584,-1.568 -7.84,-1.568 -4.181329,0 -7.615995,1.49333 -3.36,1.49334 -5.749333,4.10667 -2.389334,2.61333 -3.733334,6.12267 -1.269333,3.50933 -1.269333,7.616 0,4.256 1.269333,7.84 1.344,3.50933 3.733334,6.12266 2.464,2.61334 5.898666,4.10667 3.509333,1.41867 7.914662,1.41867 6.048,0 10.528,-1.86667 v -13.44 h -11.12533 v -7.76533 h 20.23467 z" />
		<path transform="translate(68,110), scale(0.9)"
				d="m 11.168,-33.07 h 8.58667 v 5.97333 h 0.14933 q 1.49333,-3.136 4.18133,-5.07733 2.688,-1.94133 6.272,-1.94133 0.52267,0 1.12,0.0747 0.59734,0 1.04534,0.14934 v 8.21333 q -0.896,-0.224 -1.568,-0.29867 -0.59734,-0.0747 -1.19467,-0.0747 -3.06133,0 -4.928,1.12 -1.86667,1.12 -2.912,2.688 -1.04533,1.568 -1.41867,3.21066 -0.37333,1.64267 -0.37333,2.61334 v 19.18933 h -8.96 z" />
		<path transform="translate(68,110), scale(0.9)"
				d="m 59.68,-1.79 h -0.224 q -1.344,2.38934 -4.33067,3.95734 -2.98667,1.49333 -6.79467,1.49333 -2.16533,0 -4.55466,-0.59733 -2.31467,-0.52267 -4.33067,-1.792 -1.94133,-1.344 -3.28533,-3.43467 -1.26934,-2.16533 -1.26934,-5.30133 0,-4.032 2.24,-6.42134 2.31467,-2.38933 5.89867,-3.65866 3.584,-1.26934 7.91467,-1.64267 4.40533,-0.448 8.58666,-0.448 v -0.896 q 0,-3.36 -2.464,-4.928 -2.38933,-1.64267 -5.74933,-1.64267 -2.83733,0 -5.45067,1.19467 -2.61333,1.19467 -4.33066,2.912 l -4.62934,-5.45067 q 3.06134,-2.83733 7.01867,-4.256 4.032,-1.41866 8.13867,-1.41866 4.77866,0 7.84,1.344 3.136,1.344 4.92799,3.50933 1.792,2.16533 2.464,4.85333 0.74667,2.688 0.74667,5.376 v 21.80267 h -8.36266 z m -0.14934,-11.79733 h -2.016 q -2.16533,0 -4.55466,0.224 -2.38934,0.14933 -4.40534,0.82133 -2.016,0.59734 -3.36,1.792 -1.344,1.12 -1.344,3.136 0,1.26934 0.52267,2.16534 0.59733,0.82133 1.49333,1.344 0.896,0.52266 2.016,0.74666 1.12,0.224 2.24,0.224 4.62934,0 7.01867,-2.464 2.38933,-2.464 2.38933,-6.72 z" />
		<path transform="translate(68,110), scale(0.9)"
				d="m 73.34,-33.07 h 9.93066 l 10.00533,26.05867 h 0.14934 l 8.88533,-26.05867 h 9.33333 l -16.94933,43.53067 q -0.97067,2.464 -2.09067,4.33066 -1.12,1.94134 -2.688,3.21067 -1.568,1.344 -3.73333,2.016 -2.09066,0.672 -5.07733,0.672 -1.12,0 -2.31467,-0.14933 -1.12,-0.0747 -2.31466,-0.37334 l 0.74666,-7.76533 q 0.896,0.29867 1.71734,0.37333 0.896,0.14934 1.64266,0.14934 1.41867,0 2.38934,-0.37334 0.97066,-0.29866 1.64266,-1.04533 0.672,-0.672 1.19467,-1.71733 0.52267,-1.04534 1.12,-2.464 l 1.792,-4.55467 z" />
		<path transform="translate(68,110), scale(0.9)"
				d="m 151.77,-50.10 h 8.13867 l 22.77333,52.864 h -10.752 l -4.928,-12.096 h -22.92266 l -4.77867,12.096 h -10.528 z m 11.94667,32.704 -8.13867,-21.504 -8.288,21.504 z" />
		<path transform="translate(68,110), scale(0.9)"
				d="m 187.55,-33.07 h 8.58666 v 5.97333 h 0.14933 q 1.49334,-3.136 4.18134,-5.07733 2.688,-1.94133 6.272,-1.94133 0.52266,0 1.12,0.0747 0.59733,0 1.04533,0.14934 v 8.21333 q -0.896,-0.224 -1.568,-0.29867 -0.59733,-0.0747 -1.19467,-0.0747 -3.06133,0 -4.928,1.12 -1.86666,1.12 -2.912,2.688 -1.04533,1.568 -1.41866,3.21066 -0.37334,1.64267 -0.37334,2.61334 v 19.18933 h -8.95999 z" />
		<path transform="translate(68,110), scale(0.9)"
				d="m 238.76,-18.74 q 0,-1.71733 -0.52267,-3.28533 -0.448,-1.568 -1.49333,-2.76267 -1.04534,-1.19467 -2.688,-1.86667 -1.568,-0.74666 -3.73334,-0.74666 -4.032,0 -6.86933,2.464 -2.76267,2.38933 -3.06133,6.19733 z m 8.96,4.032 q 0,0.59733 0,1.19467 0,0.59733 -0.0747,1.19466 h -27.25333 q 0.14933,1.94134 0.97066,3.584 0.896,1.568 2.31467,2.76267 1.41867,1.12 3.21067,1.792 1.792,0.672 3.73333,0.672 3.36,0 5.67467,-1.19467 2.31466,-1.26933 3.808,-3.43466 l 5.97333,4.77866 q -5.30133,7.168 -15.38133,7.168 -4.18134,0 -7.69067,-1.26933 -3.50933,-1.344 -6.12267,-3.73333 -2.53866,-2.38934 -4.032,-5.824 -1.41866,-3.50934 -1.41866,-7.91467 0,-4.33067 1.41866,-7.84 1.49334,-3.584 4.032,-6.048 2.53867,-2.53867 5.97334,-3.88267 3.50933,-1.41866 7.54133,-1.41866 3.73333,0 6.86933,1.26933 3.21067,1.19467 5.52534,3.65867 2.31466,2.38933 3.584,6.048 1.344,3.584 1.344,8.43733 z" />
		<path transform="translate(68,110), scale(0.9)"
				d="m 278.37,-1.79 h -0.224 q -1.344,2.38934 -4.33066,3.95734 -2.98667,1.49333 -6.79467,1.49333 -2.16533,0 -4.55467,-0.59733 -2.31466,-0.52267 -4.33066,-1.792 -1.94134,-1.344 -3.28534,-3.43467 -1.26933,-2.16533 -1.26933,-5.30133 0,-4.032 2.24,-6.42134 2.31467,-2.38933 5.89867,-3.65866 3.584,-1.26934 7.91466,-1.64267 4.40534,-0.448 8.58667,-0.448 v -0.896 q 0,-3.36 -2.464,-4.928 -2.38933,-1.64267 -5.74933,-1.64267 -2.83734,0 -5.45067,1.19467 -2.61333,1.19467 -4.33067,2.912 l -4.62933,-5.45067 q 3.06133,-2.83733 7.01867,-4.256 4.032,-1.41866 8.13866,-1.41866 4.77867,0 7.84,1.344 3.136,1.344 4.928,3.50933 1.792,2.16533 2.464,4.85333 0.74667,2.688 0.74667,5.376 v 21.80267 h -8.36267 z m -0.14933,-11.79733 h -2.016 q -2.16533,0 -4.55467,0.224 -2.38933,0.14933 -4.40533,0.82133 -2.016,0.59734 -3.36,1.792 -1.344,1.12 -1.344,3.136 0,1.26934 0.52267,2.16534 0.59733,0.82133 1.49333,1.344 0.896,0.52266 2.016,0.74666 1.12,0.224 2.24,0.224 4.62933,0 7.01867,-2.464 2.38933,-2.464 2.38933,-6.72 z" />
		<path transform="translate(68,110), scale(0.9)"
				d="m 317.04,-23.52 q -1.19466,-1.568 -3.28533,-2.688 -2.09067,-1.19466 -4.55467,-1.19466 -2.16533,0 -3.95733,0.896 -1.792,0.896 -1.792,2.98666 0,2.09067 1.94133,2.98667 2.016,0.82133 5.824,1.71733 2.016,0.448 4.032,1.19467 2.09067,0.74667 3.73334,2.016 1.71733,1.19467 2.76266,3.06133 1.04534,1.792 1.04534,4.40534 0,3.28533 -1.26934,5.6 -1.19466,2.24 -3.28533,3.65866 -2.016,1.41867 -4.77867,2.016 -2.688,0.672 -5.6,0.672 -4.18133,0 -8.13866,-1.49333 -3.95734,-1.568 -6.57067,-4.40533 l 5.89867,-5.52534 q 1.49333,1.94134 3.88266,3.21067 2.38934,1.26933 5.30134,1.26933 0.97066,0 1.94133,-0.224 1.04533,-0.224 1.86667,-0.672 0.896,-0.52266 1.41866,-1.344 0.52267,-0.82133 0.52267,-2.016 0,-2.24 -2.09067,-3.21066 -2.016,-0.97067 -6.12266,-1.94134 -2.016,-0.448 -3.95734,-1.12 -1.86666,-0.74666 -3.36,-1.86666 -1.49333,-1.19467 -2.38933,-2.912 -0.896,-1.71734 -0.896,-4.256 0,-2.98667 1.19467,-5.152 1.26933,-2.16534 3.28533,-3.50934 2.016,-1.41866 4.55467,-2.09066 2.53866,-0.672 5.22666,-0.672 3.88267,0 7.54134,1.344 3.73333,1.344 5.89866,4.10666 z" />
		<!-- Ch -->
		<path transform="translate(405,80), scale(0.7)"
							d="M 0,0 H -42.68 q 0.0625,14.3125 -0.4375,21.96875 -0.5,7.65625 -2.6875,15.09375 -2.1875,7.40625 -6.8125,11.78125 l -3.875,-3.53125 q 4.40625,-4.125 6.28125,-11.15625 1.875,-7.0625 2.09375,-13.46875 0.25,-6.40625 0.25,-25.5 h 47.87501 z m 2.8125,43.78125 -3.71875,4.875 q -13.5625,-6 -20.09376,-15.6875 -6.4375,12.25 -20.78125,16.0625 l -3.15625,-4.8125 q 5.875,-0.96875 12.1875,-5.53125 6.3125,-4.5625 7.96875,-10.53125 1.6875,-6 1.6875,-13.3125 v -11.5 l 5.3125,0.4375 q 0,20 -1.40625,23.75 7.65626,11.28125 22.00001,16.25 z m -32.90626,-33.03125 q -0.40625,8.53125 -5.5625,15.3125 l -4.59375,-2.25 q 4.90625,-6.0625 5.625,-14.40625 z m 27.90626,0.3125 q -1.34375,8.875 -5.4375,15.5625 l -4.84375,-2.375 q 4.625,-6.90625 5.4375,-14.71875 z"/>
		<path transform="translate(405,155), scale(0.7)"
							d="m 0,0 q -2.125,8.09376 -3.90625,10.84376 -1.75,2.71875 -5.75,2.71875 h -33.87501 q -6.1875,-0.71875 -6.1875,-6.53125 v -25.59376 l -4.6875,3.71875 -3.96875,-3.53125 Q -44.81,-26.656 -38.09,-41.15 l 4.5,1.96875 q -0.59375,1.375 -2.4375,4.5 h 20.34376 v 4.40625 q -2.25,4.6875 -4.59376,7.03125 h 13.37501 v 21 h -37.56251 v 9.15626 q 0,1.96875 1.96875,1.96875 h 32.78126 q 2.34375,0.4375 4.84375,-11.00001 z M -21.25,-30.03 h -17.53125 q -2.46875,3.75 -5.5,6.78125 h 16.9375 q 3.65625,-2.65625 6.09375,-6.78125 z m 9.28126,23.09375 v -11.625 h -13.75001 v 11.625 z m -18.62501,0 v -11.625 h -13.875 v 11.625 z"/>
		<path transform="translate(405,215), scale(0.7)"
				d="M 0,0 H -46.34 v 3.65625 H -51.218 v -53.84376 h 49.09376 v 4.62501 H -46.34 v 40.96875 h 46.34376 z m -6.65625,-8.84375 -4.21875,2.8125 q -4.46875,-7.96875 -11.46876,-15.84375 -5.71875,8.0625 -17.03125,16.25 l -3.78125,-4.09375 q 11,-6.875 17.5625,-15.9375 -6.84375,-7.5 -16.46875,-14.84375 l 3.65625,-3.03125 q 9.75,7.59375 15.5,13.71875 4.90625,-6.9375 8.68751,-13.90625 l 4.09375,2.25 q -2,4.09375 -9.34376,15.34375 8.15626,8.625 12.81251,17.28125 z"/>
		</g>
		<g id="colorText">
		<!-- COLOR -->
		<!-- Eng style="fill:#b6100b;fill-opacity:1" -->
		<path transform="translate(0,3)"
				d="m 0,0 h 20.608 q 2.986665,0 5.898665,0.74666 2.912,0.672 5.152,2.31467 2.31467,1.568 3.73333,4.10667 1.41867,2.53866 1.41867,6.12266 0,4.48 -2.53867,7.392 -2.53866,2.912 -6.64533,4.18134 v 0.14933 q 5.00267,0.672 8.21333,3.88267 3.21067,3.21066 3.21067,8.58666 0,4.33067 -1.71733,7.31734 -1.71734,2.912 -4.55467,4.704 -2.76267,1.792 -6.42133,2.61333 -3.584,0.74667 -7.317335,0.74667 h -19.04 z m 9.408,21.504 h 8.362666 q 4.704,0 7.167999,-1.86667 2.464,-1.86667 2.464,-5.30133 0,-3.584 -2.53867,-5.07734 -2.538662,-1.49333 -7.914662,-1.49333 h -7.541333 z m 0,23.44533 h 8.437333 q 1.792,0 3.882667,-0.224 2.090665,-0.29867 3.807995,-1.12 1.792,-0.82133 2.912,-2.38933 1.19467,-1.568 1.19467,-4.18134 0,-4.18133 -2.83733,-5.824 -2.83734,-1.64266 -8.586669,-1.64266 h -8.810666 z" />
		<path transform="translate(0,3)"
				d="m 48.13,17.02 h 8.96 v 35.84 h -8.96 z m -1.26933,-12.17067 q 0,-2.16533 1.568,-3.73333 1.64266,-1.64267 4.10666,-1.64267 2.464,0 4.10667,1.568 1.71733,1.49333 1.71733,3.808 0,2.31467 -1.71733,3.88267 -1.64267,1.49333 -4.10667,1.49333 -2.464,0 -4.10666,-1.568 -1.568,-1.64267 -1.568,-3.808 z" />
		<path transform="translate(0,3)"
				d="m 104.55,17.02 v 32.62933 q 0,4.85333 -1.19467,8.736 -1.19467,3.95733 -3.73333,6.64533 -2.464,2.76267 -6.272,4.256 -3.808,1.49334 -9.03467,1.49334 -2.16533,0 -4.62933,-0.37334 -2.38934,-0.37333 -4.77867,-1.12 -2.31467,-0.74666 -4.48,-1.86666 -2.16533,-1.12 -3.88266,-2.53867 l 5.152,-6.944 q 2.61333,2.464 5.89866,3.73333 3.28533,1.344 6.64533,1.344 3.21067,0 5.376,-0.97066 2.24,-0.896 3.50934,-2.53867 1.344,-1.64267 1.86666,-3.88267 0.59734,-2.24 0.59734,-4.928 v -2.61333 h -0.14934 q -1.94133,2.61333 -5.00266,4.032 -2.98667,1.344 -6.72,1.344 -4.032,0 -7.31734,-1.49333 -3.28533,-1.49334 -5.59999,-4.032 -2.24,-2.53867 -3.50934,-5.89867 -1.26933,-3.43467 -1.26933,-7.24267 0,-3.88266 1.19467,-7.31733 1.26933,-3.43467 3.50933,-5.97333 2.31466,-2.53867 5.52533,-4.032 3.28533,-1.49334 7.31733,-1.49334 3.808,0 7.09334,1.568 3.28533,1.568 5.22666,4.85334 h 0.14934 v -5.376 z m -19.11467,6.272 q -2.464,0 -4.40533,0.896 -1.86667,0.896 -3.21067,2.464 -1.26933,1.49333 -2.016,3.584 -0.672,2.09066 -0.672,4.48 0,2.16533 0.672,4.18133 0.74667,2.016 2.016,3.65867 1.344,1.568 3.21067,2.53866 1.94133,0.97067 4.33066,0.97067 2.464,0 4.40534,-0.896 2.016,-0.97067 3.36,-2.53867 1.41866,-1.568 2.16533,-3.584 0.74667,-2.09066 0.74667,-4.33066 0,-2.31467 -0.74667,-4.40534 -0.74667,-2.09066 -2.16533,-3.65866 -1.344,-1.568 -3.28534,-2.464 -1.94133,-0.896 -4.40533,-0.896 z" />
		<path transform="translate(0,3)"
				d="m 134.80,0 h 18.368 q 3.73333,0 7.24266,0.82133 3.50934,0.74667 6.19734,2.53867 2.76266,1.792 4.40533,4.704 1.64267,2.912 1.64267,7.09333 0,5.74933 -3.28534,9.408 -3.21066,3.584 -8.81066,4.85333 l 14.112,23.44534 h -11.34934 l -12.24533,-22.4 h -6.86933 v 22.4 h -9.408 z m 17.09866,22.77333 q 2.016,0 4.032,-0.29867 2.016,-0.29866 3.584,-1.12 1.64267,-0.82133 2.688,-2.31466 1.04534,-1.568 1.04534,-3.95734 0,-2.16533 -0.97067,-3.50933 -0.97067,-1.41867 -2.464,-2.24 -1.49333,-0.82133 -3.43467,-1.12 -1.86666,-0.29867 -3.65866,-0.29867 h -8.512 v 14.85867 z" />
		<path transform="translate(0,3)"
				d="m 205.83,31.36 q 0,-1.71734 -0.52267,-3.28534 -0.448,-1.568 -1.49333,-2.76266 -1.04533,-1.19467 -2.688,-1.86667 -1.568,-0.74667 -3.73333,-0.74667 -4.032,0 -6.86934,2.464 -2.76266,2.38934 -3.06133,6.19734 z m 8.96,4.032 q 0,0.59733 0,1.19466 0,0.59734 -0.0747,1.19467 h -27.25333 q 0.14933,1.94133 0.97067,3.584 0.896,1.568 2.31466,2.76267 1.41867,1.12 3.21067,1.792 1.792,0.672 3.73333,0.672 3.36,0 5.67467,-1.19467 2.31467,-1.26933 3.808,-3.43467 l 5.97333,4.77867 q -5.30133,7.168 -15.38133,7.168 -4.18133,0 -7.69067,-1.26933 -3.50933,-1.344 -6.12266,-3.73334 -2.53867,-2.38933 -4.032,-5.824 -1.41867,-3.50933 -1.41867,-7.91466 0,-4.33067 1.41867,-7.84 1.49333,-3.584 4.032,-6.048 2.53866,-2.53867 5.97333,-3.88267 3.50933,-1.41867 7.54133,-1.41867 3.73334,0 6.86934,1.26934 3.21066,1.19466 5.52533,3.65866 2.31467,2.38934 3.584,6.048 1.344,3.584 1.344,8.43734 z" />
		<path transform="translate(0,3)"
				d="m 260.07,52.86 h -8.512 v -5.376 h -0.14933 q -1.86667,3.136 -5.22667,4.77866 -3.28533,1.64267 -7.09333,1.64267 -4.10667,0 -7.392,-1.49333 -3.21067,-1.568 -5.52534,-4.10667 -2.24,-2.61333 -3.50933,-6.048 -1.19467,-3.50933 -1.19467,-7.46667 0,-3.95733 1.26934,-7.392 1.26933,-3.43466 3.584,-5.97333 2.31466,-2.53867 5.52533,-3.95733 3.21067,-1.49334 7.01867,-1.49334 2.464,0 4.40533,0.59734 1.94133,0.52266 3.36,1.344 1.49333,0.82133 2.53867,1.792 1.04533,0.97066 1.71733,1.86666 h 0.224 v -25.16266 h 8.96 z m -29.49333,-18.06934 q 0,2.09067 0.59733,4.18134 0.672,2.09066 1.94133,3.73333 1.26934,1.64267 3.21067,2.688 1.94133,1.04533 4.55467,1.04533 2.464,0 4.40533,-0.97066 1.94133,-1.04534 3.28533,-2.688 1.41867,-1.64267 2.09067,-3.65867 0.74667,-2.09067 0.74667,-4.18133 0,-2.09067 -0.74667,-4.18134 -0.672,-2.09066 -2.09067,-3.73333 -1.344,-1.64267 -3.28533,-2.688 -1.94133,-1.04533 -4.40533,-1.04533 -2.61334,0 -4.55467,1.04533 -1.94133,0.97067 -3.21067,2.61333 -1.26933,1.64267 -1.94133,3.73334 -0.59733,2.016 -0.59733,4.10666 z" />
		<path transform="translate(0,3)"
				d="m 328.62,12.39 q -2.09067,-2.83733 -5.45067,-4.10666 -3.36,-1.344 -6.57066,-1.344 -4.10667,0 -7.46667,1.49333 -3.36,1.49333 -5.824,4.10667 -2.38933,2.61333 -3.73333,6.12266 -1.26934,3.50934 -1.26934,7.616 0,4.33067 1.26934,7.91467 1.26933,3.584 3.584,6.19733 2.38933,2.53867 5.67466,3.95734 3.28534,1.41866 7.392,1.41866 4.256,0 7.54134,-1.64266 3.28533,-1.71734 5.30133,-4.48 l 7.54133,5.30133 q -3.50933,4.40533 -8.58666,6.86933 -5.07734,2.38934 -11.872,2.38934 -6.19734,0 -11.424,-2.016 -5.152,-2.09067 -8.88534,-5.74934 -3.73333,-3.73333 -5.824,-8.81066 -2.09066,-5.152 -2.09066,-11.34934 0,-6.34666 2.16533,-11.424 2.24,-5.152 6.048,-8.736 3.88267,-3.584 9.10933,-5.52533 5.22667,-1.94133 11.34934,-1.94133 2.53866,0 5.30133,0.52266 2.76267,0.448 5.30133,1.49334 2.53867,0.97066 4.77867,2.464 2.24,1.49333 3.808,3.584 z" />
		<path transform="translate(0,3)"
				d="m 339.13,34.79 q 0,-4.256 1.49333,-7.69066 1.568,-3.50934 4.18133,-5.97334 2.61334,-2.464 6.19734,-3.808 3.584,-1.344 7.616,-1.344 4.032,0 7.616,1.344 3.584,1.344 6.19733,3.808 2.61333,2.464 4.10667,5.97334 1.568,3.43466 1.568,7.69066 0,4.256 -1.568,7.76534 -1.49334,3.50933 -4.10667,6.048 -2.61333,2.464 -6.19733,3.88266 -3.584,1.41867 -7.616,1.41867 -4.032,0 -7.616,-1.41867 -3.584,-1.41866 -6.19734,-3.88266 -2.61333,-2.53867 -4.18133,-6.048 -1.49333,-3.50934 -1.49333,-7.76534 z m 9.10933,0 q 0,2.09067 0.59733,4.18134 0.672,2.09066 1.94134,3.73333 1.26933,1.64267 3.21066,2.688 1.94134,1.04533 4.62934,1.04533 2.688,0 4.62933,-1.04533 1.94133,-1.04533 3.21067,-2.688 1.26933,-1.64267 1.86666,-3.73333 0.672,-2.09067 0.672,-4.18134 0,-2.09066 -0.672,-4.10666 -0.59733,-2.09067 -1.86666,-3.73334 -1.26934,-1.64266 -3.21067,-2.61333 -1.94133,-1.04533 -4.62933,-1.04533 -2.688,0 -4.62934,1.04533 -1.94133,0.97067 -3.21066,2.61333 -1.26934,1.64267 -1.94134,3.73334 -0.59733,2.016 -0.59733,4.10666 z" />
		<path transform="translate(0,3)"
				d="m 387.03,-3.58 h 8.96 v 56.448 h -8.96 z" />
		<path transform="translate(0,3)"
				d="m 404.92,34.79 q 0,-4.256 1.49333,-7.69066 1.568,-3.50934 4.18134,-5.97334 2.61333,-2.464 6.19733,-3.808 3.584,-1.344 7.616,-1.344 4.032,0 7.616,1.344 3.584,1.344 6.19733,3.808 2.61334,2.464 4.10667,5.97334 1.568,3.43466 1.568,7.69066 0,4.256 -1.568,7.76534 -1.49333,3.50933 -4.10667,6.048 -2.61333,2.464 -6.19733,3.88266 -3.584,1.41867 -7.616,1.41867 -4.032,0 -7.616,-1.41867 -3.584,-1.41866 -6.19733,-3.88266 -2.61334,-2.53867 -4.18134,-6.048 -1.49333,-3.50934 -1.49333,-7.76534 z m 9.10933,0 q 0,2.09067 0.59734,4.18134 0.672,2.09066 1.94133,3.73333 1.26933,1.64267 3.21067,2.688 1.94133,1.04533 4.62933,1.04533 2.688,0 4.62933,-1.04533 1.94134,-1.04533 3.21067,-2.688 1.26933,-1.64267 1.86667,-3.73333 0.672,-2.09067 0.672,-4.18134 0,-2.09066 -0.672,-4.10666 -0.59734,-2.09067 -1.86667,-3.73334 -1.26933,-1.64266 -3.21067,-2.61333 -1.94133,-1.04533 -4.62933,-1.04533 -2.688,0 -4.62933,1.04533 -1.94134,0.97067 -3.21067,2.61333 -1.26933,1.64267 -1.94133,3.73334 -0.59734,2.016 -0.59734,4.10666 z" />
		<path transform="translate(0,3)"
				d="m 452.68,17.02 h 8.58667 v 5.97333 h 0.14933 q 1.49333,-3.136 4.18133,-5.07733 2.688,-1.94134 6.272,-1.94134 0.52267,0 1.12,0.0747 0.59734,0 1.04534,0.14933 v 8.21334 q -0.896,-0.224 -1.568,-0.29867 -0.59734,-0.0747 -1.19467,-0.0747 -3.06133,0 -4.928,1.12 -1.86667,1.12 -2.912,2.688 -1.04533,1.568 -1.41867,3.21067 -0.37333,1.64267 -0.37333,2.61333 v 19.18934 h -8.96 z" />
		<!-- Ch -->
		<path transform="translate(470,120)"
				d="m 0,0 -3.46875,3.84375 q -10.40625,-6.15625 -15.78126,-14.34375 -5.375,-8.1875 -7.25,-20.90625 -2.34375,12.90625 -8.03125,21.09375 -5.65625,8.15625 -16.09375,13.84375 l -3.65625,-4.40625 q 18.59375,-8.84375 22.65625,-30.59375 H -51.15 v -4.875 h 19.96875 q 0.65625,-5.6875 0.46875,-16.125 l 5.1875,0.75 q 0.15625,10.15625 -0.34375,15.375 h 23.00001 v 4.875 h -18.81251 q 2,11.3125 7.09376,18.6875 5.09375,7.34375 14.59375,12.78125 z" />
		<path transform="translate(438,180)"
				d="m 0,0 q -14.71875,3.5 -19.125,4.9375 L -21.56,0.37 q 6.25,-6.28125 9.09375,-10.625 -3.5625,0.875 -6.9375,1.9375 l -2.40625,-4.375 q 6.78125,-12.71875 10.75,-22.90625 l 4.46875,2.0625 q -4.46875,10.5 -9.40625,19.4375 l 6.71875,-1.40625 q 1.5625,-2.3125 4.28125,-7.65625 l 4.5,2.03125 q -6.40625,13.0625 -13.25,19.46875 l 0.125,0.125 13.625,-3.34375 z m 33.34376,17.21876 H -2.18 v -4.6875 h 14.90625 V -25.53 H 0.125 v -4.6875 h 30.46876 v 4.6875 h -12.625 v 38.06251 h 15.375 z m -32.00001,-7.625 -20.40625,7.09375 -2.375,-4.40625 q 14.75,-4.9375 22.78125,-7.46876 z" />
		<path transform="translate(475,250)"
					d="m 0,0 q -2.125,8.09375 -3.90625,10.84375 -1.75,2.71875 -5.75,2.71875 h -33.87501 q -6.1875,-0.71875 -6.1875,-6.53125 v -25.59375 l -4.6875,3.71875 -3.96875,-3.53125 q 13.5625,-8.28125 20.28125,-22.78126 l 4.5,1.96875 q -0.59375,1.375 -2.4375,4.50001 h 20.34376 v 4.40625 q -2.25,4.6875 -4.59376,7.03125 h 13.37501 v 21 h -37.56251 v 9.15625 q 0,1.96875 1.96875,1.96875 h 32.78126 q 2.34375,0.4375 4.84375,-11 z M -21.25,-30.03 h -17.53125 q -2.46875,3.75 -5.5,6.78125 h 16.9375 q 3.65625,-2.65625 6.09375,-6.78125 z m 9.28126,23.09375 v -11.625 h -13.75001 v 11.625 z m -18.62501,0 v -11.625 h -13.875 v 11.625 z" />
	</g>

	<radialGradient id="largeCircleGradient">
		<stop offset="0%" stop-color="#555"/>
		<stop offset="50%" stop-color="#999"/>
		<stop offset="80%" stop-color="black"/>
	</radialGradient>

	<radialGradient id="smallCircleGradient">
		<stop offset="0%" stop-color="#aaa"/>
		<stop offset="100%" stop-color="black"/>
	</radialGradient>

	<mask id="mask">
		<circle cx="180" cy="340" r="280" fill="url(#largeCircleGradient)"/>
		<circle cx="600" cy="230" r="150" fill="url(#largeCircleGradient)"/>
		<circle cx="860" cy="200" r="85" fill="url(#smallCircleGradient)"/>
	</mask>

	<clipPath id="clipPathCircles">
		<circle cx="180" cy="340" r="280" fill="white"/>
		<circle cx="600" cy="230" r="150" fill="white"/>
		<circle cx="860" cy="200" r="85" fill="white"/>
	</clipPath>

	<mask id="maskInverse">
		<rect x="0" y="0" width="1000" height="500" fill="white" />
		<circle cx="180" cy="340" r="280" fill="black"/>
		<circle cx="600" cy="230" r="150" fill="black"/>
		<circle cx="860" cy="200" r="85" fill="black"/>
	</mask>

	<g id="image">
		<image xlink:href="./start_img.jpg" height="500" width="1000"/>
	</g>

	<filter id="gray" >
		<feTurbulence type="fractalNoise" baseFrequency="200" result="noise"/>
		<feBlend in="SourceGraphic" in2="noise" mode="multiply" result="TBR" />
		<feColorMatrix
		in="TBR"
		type="matrix"
		values="0.15 0 0 0 0
				0 0.15 0 0 0
				0 0 0.15 0 0
				0 0 0 1 0" result="darken"/>
		<feColorMatrix in="darken"
		type="saturate"
		values="0.0"
		/>
	</filter>
</defs>


<g filter="url(#gray)">
<use xlink:href="#image"></use>
</g>


<use xlink:href="#image" mask="url(#mask)"></use>

<!-- Fill and inverse coloring in less opacity -->
<use xlink:href="#colorText"
    style="fill:#b6100b;fill-opacity:1;stroke:#b6100b"
    mask="url(#maskInverse)"></use>
<use xlink:href="#colorText"
    style="fill:#222;fill-opacity:1;stroke:#666f;opacity:0.4"
    clip-path="url(#clipPathCircles)"></use>

<use xlink:href="#greyText"
    style="fill:#b6100b;fill-opacity:1;stroke:#b6100b;opacity:0.4"
    mask="url(#maskInverse)"></use>
<use xlink:href="#greyText"
    style="fill:#222;fill-opacity:1;stroke:#666f"
    clip-path="url(#clipPathCircles)"></use>


</svg>
